<svg xmlns="http://www.w3.org/2000/svg" width="30" height="30" version="1.1">
<g transform="translate(13.8,9)" stroke-width="0" fill="white">
<circle cx="1.2" cy="6" r="15" fill="rgb(137,211,158)" opacity="1"/>
<circle cx="0" cy="0" r="2"/>
<path d="M-1.5,-2.598076211353316A3,3 0 0,0-2.598076211353316,1.5A5,5 0 0,1-1.5,-6.840716898472603A3,3 0 0,0-1.5,-2.598076211353316"/>
<path d="M0,-3A3,3 0 0,1 3,0A6,6 0 0,1 11.485281374238571,0A8,8 0 0,0 0,-3"/>
<path d="M-1.5,2.598076211353316A3,3 0 0,0 2.598076211353316,1.5A13,13 0 0,1-1.5,19.56863895983046A12,12 0 0,0-1.5,2.598076211353316"/>
</g>
</svg>